<svg xmlns="http://www.w3.org/2000/svg" xmlns:xlink="http://www.w3.org/1999/xlink" viewBox="0 0 1920 1080"><defs><style>.cls-1{isolation:isolate;}.cls-2{fill:#aeffa3;}.cls-10,.cls-11,.cls-12,.cls-13,.cls-14,.cls-3,.cls-4,.cls-5,.cls-6,.cls-7,.cls-8,.cls-9{mix-blend-mode:soft-light;}.cls-3{fill:url(#Degradado_sin_nombre_12);}.cls-4{fill:url(#Degradado_sin_nombre_12-2);}.cls-5{fill:url(#Degradado_sin_nombre_12-3);}.cls-6{fill:url(#Degradado_sin_nombre_12-4);}.cls-7{fill:url(#Degradado_sin_nombre_12-5);}.cls-8{fill:url(#Degradado_sin_nombre_12-6);}.cls-9{fill:url(#Degradado_sin_nombre_12-7);}.cls-10{fill:url(#Degradado_sin_nombre_12-8);}.cls-11{fill:url(#Degradado_sin_nombre_12-9);}.cls-12{fill:url(#Degradado_sin_nombre_12-10);}.cls-13{fill:url(#Degradado_sin_nombre_12-11);}.cls-14{fill:url(#Degradado_sin_nombre_12-12);}.cls-15{fill:#1e6608;}.cls-16{fill:#57f533;}</style><linearGradient id="Degradado_sin_nombre_12" x1="959.72" y1="-1.34" x2="959.72" y2="537.97" gradientTransform="translate(1720.32 1336.39) rotate(-163.02)" gradientUnits="userSpaceOnUse"><stop offset="0" stop-color="#fff" stop-opacity="0"/><stop offset="0.47" stop-color="#fff"/></linearGradient><linearGradient id="Degradado_sin_nombre_12-2" x1="959.72" y1="-1.34" x2="959.72" y2="537.97" gradientTransform="matrix(-0.68, -0.73, 0.73, -0.68, 1220.26, 1609.86)" xlink:href="#Degradado_sin_nombre_12"/><linearGradient id="Degradado_sin_nombre_12-3" x1="959.72" y1="-1.34" x2="959.72" y2="537.97" gradientTransform="translate(650.46 1596.65) rotate(-103.02)" xlink:href="#Degradado_sin_nombre_12"/><linearGradient id="Degradado_sin_nombre_12-4" x1="959.72" y1="-1.34" x2="959.72" y2="537.97" gradientTransform="translate(163.61 1300.32) rotate(-73.02)" xlink:href="#Degradado_sin_nombre_12"/><linearGradient id="Degradado_sin_nombre_12-5" x1="959.72" y1="-1.34" x2="959.72" y2="537.97" gradientTransform="matrix(0.73, -0.68, 0.68, 0.73, -109.85, 800.26)" xlink:href="#Degradado_sin_nombre_12"/><linearGradient id="Degradado_sin_nombre_12-6" x1="959.72" y1="-1.34" x2="959.72" y2="537.97" gradientTransform="translate(-96.65 230.46) rotate(-13.02)" xlink:href="#Degradado_sin_nombre_12"/><linearGradient id="Degradado_sin_nombre_12-7" x1="959.72" y1="-1.34" x2="959.72" y2="537.97" gradientTransform="translate(199.68 -256.39) rotate(16.98)" xlink:href="#Degradado_sin_nombre_12"/><linearGradient id="Degradado_sin_nombre_12-8" x1="959.72" y1="-1.34" x2="959.72" y2="537.97" gradientTransform="matrix(0.68, 0.73, -0.73, 0.68, 699.74, -529.85)" xlink:href="#Degradado_sin_nombre_12"/><linearGradient id="Degradado_sin_nombre_12-9" x1="959.72" y1="-1.34" x2="959.72" y2="537.97" gradientTransform="translate(1269.54 -516.65) rotate(76.98)" xlink:href="#Degradado_sin_nombre_12"/><linearGradient id="Degradado_sin_nombre_12-10" x1="959.72" y1="-1.34" x2="959.72" y2="537.97" gradientTransform="translate(1756.39 -220.32) rotate(106.98)" xlink:href="#Degradado_sin_nombre_12"/><linearGradient id="Degradado_sin_nombre_12-11" x1="959.72" y1="-1.34" x2="959.72" y2="537.97" gradientTransform="matrix(-0.73, 0.68, -0.68, -0.73, 2029.85, 279.74)" xlink:href="#Degradado_sin_nombre_12"/><linearGradient id="Degradado_sin_nombre_12-12" x1="959.72" y1="-1.34" x2="959.72" y2="537.97" gradientTransform="translate(2016.65 849.54) rotate(166.98)" xlink:href="#Degradado_sin_nombre_12"/></defs><g class="cls-1"><g id="Capa_1" data-name="Capa 1"><rect class="cls-2" width="1920" height="1080"/><polygon class="cls-3" points="750.7 1041.78 853.35 1073.12 959.5 541.64 959.5 541.64 750.7 1041.78"/><polygon class="cls-4" points="527.85 869.91 601.08 948.37 958.75 541.17 958.75 541.17 527.85 869.91"/><polygon class="cls-5" points="420.8 609.63 444.98 714.2 958.33 540.39 958.33 540.39 420.8 609.63"/><polygon class="cls-6" points="458.22 330.7 426.88 433.35 958.36 539.5 958.36 539.5 458.22 330.7"/><polygon class="cls-7" points="630.09 107.85 551.63 181.08 958.83 538.75 958.83 538.75 630.09 107.85"/><polygon class="cls-8" points="890.37 0.8 785.8 24.98 959.61 538.33 959.61 538.33 890.37 0.8"/><polygon class="cls-9" points="1169.3 38.22 1066.65 6.88 960.5 538.36 960.5 538.36 1169.3 38.22"/><polygon class="cls-10" points="1392.15 210.09 1318.92 131.63 961.25 538.83 961.25 538.83 1392.15 210.09"/><polygon class="cls-11" points="1499.2 470.37 1475.02 365.8 961.67 539.61 961.67 539.61 1499.2 470.37"/><polygon class="cls-12" points="1461.78 749.3 1493.12 646.65 961.64 540.5 961.64 540.5 1461.78 749.3"/><polygon class="cls-13" points="1289.91 972.15 1368.37 898.92 961.17 541.25 961.17 541.25 1289.91 972.15"/><polygon class="cls-14" points="1029.63 1079.2 1134.2 1055.02 960.39 541.67 960.39 541.67 1029.63 1079.2"/><rect class="cls-15" x="616.52" y="395.95" width="183.16" height="515.41" transform="translate(-254.52 692.47) rotate(-45)"/><rect class="cls-15" x="975.97" y="96.74" width="183.16" height="865.55" transform="translate(1448.27 1659.12) rotate(-135)"/><rect class="cls-16" x="636.52" y="415.95" width="183.16" height="515.41" transform="translate(-262.81 712.47) rotate(-45)"/><rect class="cls-16" x="995.97" y="116.74" width="183.16" height="865.55" transform="translate(1468.27 1707.4) rotate(-135)"/></g></g></svg>