<svg id="Capa_1" data-name="Capa 1" xmlns="http://www.w3.org/2000/svg" xmlns:xlink="http://www.w3.org/1999/xlink" viewBox="0 0 1938.29 1085.88"><defs><style>.cls-1{fill:#452223;}.cls-2{fill:#f7c8c9;}.cls-3{fill:url(#Degradado_sin_nombre_16);}.cls-4{fill:#910003;}.cls-5{fill:#e96267;}</style><radialGradient id="Degradado_sin_nombre_16" cx="976.61" cy="545.88" r="778.85" gradientUnits="userSpaceOnUse"><stop offset="0" stop-color="#fff" stop-opacity="0"/><stop offset="1" stop-opacity="0.2"/></radialGradient></defs><rect class="cls-1" x="16.61" y="5.88" width="1920" height="1080"/><path d="M1501.27,640.13c-81.55-14-81.49-13.93-121.63,41.93-44.41,61.78-88.93,123.51-134.69,187.06l60,23.38c-9.09,20.06-16.37,39.35-26.64,57.65-6.89,12.29-2.32,18.48,10.76,25.56,30.81,16.68,60.56,34.52,87.73,55.49-40.95-19.45-82.16-38.62-122.47-58.83-4-2-5-11-3.1-15.81,6.86-17.13,15.56-33.83,24.66-53-38-11.14-68.9-30-114.67-23.26C1081.5,892.06,1000.3,898,920,907.66c-12.88,1.54-26.88,7.79-36.11,15C860,941.44,838.54,962,814.59,983.11l52.15,28.23L762.08,1078.7l-4.33-2.71,63.91-64.63-54.5-33.19,72.16-60.86c-39.7-38.26-76.36-77-117.78-112.49-37.15-31.82-57.47-66.72-62.08-109.3-4.49-41.34-16-82.21-22.58-123.46-2.8-17.62-12.81-30.57-28.16-43.25C550.3,480.55,493,431.51,435.33,382.7c-5.29-4.48-9.88-9.44-16.6-15.91,11-5.33,19.75-9.94,28.93-14,54.89-24.12,110.25-47.62,164.55-72.49,12.4-5.68,24.2-14.64,31.22-24.26q60.89-83.44,118.86-168.13c8.62-12.58,17.94-13.78,34.6-11,117.47,19.46,235.17,38.09,352.8,57,4.29.69,8.64,1.12,15.81,2,6.5-15.47,12.75-30.37,20-47.61,26.07,3.92,51.75,6.71,76.59,11.87,17.19,3.57,26,.31,34-11.73,19.82-29.95,41.33-59.25,66.48-87.14-21.32,37.19-42.07,74.58-64.7,111.29-2.64,4.27-16.12,7.35-23.79,6.55-22.28-2.32-44.16-6.89-69-11-11.24,28.3-26.88,52.68-8.17,84.86,74.3,127.83,146.31,256.49,214.92,386.17,18.11,34.23,48.25,48.48,89.47,56.85Z" transform="translate(16.61 5.88)"/><path d="M1921.68,304.27c-21.8-21.09-45-39.58-69.23-60.44-7.1,18.83-13.46,35.73-20.91,55.5l-80.92-94.57c.7-1.55,1.39-3.11,2.09-4.66l72.7,54.56,25.5-58.5L1921,259.41" transform="translate(16.61 5.88)"/><path d="M16.67-5.88,76.73,17.5c-9.1,20.06-16.38,39.35-26.64,57.65-6.89,12.29-2.32,18.48,10.75,25.56,30.82,16.68,60.56,34.52,87.74,55.49-41-19.45-82.16-38.62-122.47-58.83-4-2-5-11-3.1-15.81,6.85-17.13,15.56-33.83,24.66-53C25.29,22,5.36,12.73-16.61,7.63" transform="translate(16.61 5.88)"/><path d="M-1.58,857.46l46.83-21.75C61.89,856.15,79,875.5,93.89,896c10.31,14.21,19.06,17.76,33.05,14.23,34.82-8.81,70.45-16,107.82-19.68C194,903.74,153.45,917.41,112,929.32c-4.83,1.39-16.87-5.41-22-11.16-14.91-16.72-28-34.83-43.6-54.65-18,8.78-36.24,15-48.86,28.62" transform="translate(16.61 5.88)"/><path class="cls-2" d="M545.08,412.23c5.92,5.94,10,10.48,14.64,14.59,51.09,44.94,102.78,89.5,153,135,9.19,8.33,16.09,20.05,18,30.85,9.22,50.8,15.89,101.86,24.64,152.72,1.56,9.06,6.22,19.12,13.67,26Q832,830,897.57,886.92c6.3,5.46,20.08,9.58,29.41,8.64q143.81-14.52,287.18-31.51c9.93-1.17,22.53-6.88,27.28-13.34q83.88-114.12,165-229.43c4.56-6.48,4.32-17.51.46-24.53-79.74-145-160.52-289.58-240.37-434.51-6.48-11.76-15.36-16.7-31.17-19.17Q1018.45,124.82,902,104.74c-18.24-3.18-27.5-.09-36.36,12.74Q804.75,205.67,741,292.72c-8.91,12.12-22.31,23.42-36.87,31.79C652.19,354.35,598.84,382.76,545.08,412.23Z" transform="translate(16.61 5.88)"/><rect class="cls-3" x="16.61" y="5.88" width="1920" height="1080"/><rect class="cls-4" x="870.09" y="111.69" width="183.16" height="865.55" transform="translate(-86.72 845.35) rotate(-45)"/><rect class="cls-4" x="866.74" y="102.76" width="183.16" height="865.55" transform="translate(1273.89 1597.73) rotate(-135)"/><rect class="cls-5" x="890.09" y="131.69" width="183.16" height="865.55" transform="translate(-95 865.35) rotate(-45)"/><rect class="cls-5" x="886.74" y="122.76" width="183.16" height="865.55" transform="translate(1293.89 1646.01) rotate(-135)"/></svg>